<?xml version="1.0" encoding="utf-8"?>
<!-- Generator: Adobe Illustrator 18.1.1, SVG Export Plug-In . SVG Version: 6.00 Build 0)  -->
<svg version="1.1" id="Layer_1" xmlns="http://www.w3.org/2000/svg" xmlns:xlink="http://www.w3.org/1999/xlink" x="0px" y="0px"
	 viewBox="31 40 188 120" enable-background="new 31 40 188 120" xml:space="preserve">
<rect x="31" y="40" fill="#DE5833" width="188" height="120"/>
<g>
	<g>
		<path fill="#FFFFFF" d="M162,100c0,20.4-16.6,37-37,37c-20.4,0-37-16.6-37-37c0-20.4,16.6-37,37-37C145.4,63,162,79.6,162,100z
			 M165,100c0-22.1-17.9-40-40-40c-22.1,0-40,17.9-40,40s17.9,40,40,40C147.1,140,165,122.1,165,100z"/>
		<g>
			<g>
				<g>
					<g>
						<defs>
							<path id="SVGID_1_" d="M162.3,99.9c0,20.6-16.8,37.3-37.3,37.3c-20.6,0-37.3-16.8-37.3-37.3c0-20.6,16.8-37.3,37.3-37.3
								C145.6,62.6,162.3,79.3,162.3,99.9z"/>
						</defs>
						<clipPath id="SVGID_2_">
							<use xlink:href="#SVGID_1_"  overflow="visible"/>
						</clipPath>
						<g clip-path="url(#SVGID_2_)">
							<path fill="#B5B5B5" d="M140.2,155.1c-1.3-6-8.9-19.6-11.7-25.3c-2.9-5.7-5.7-13.8-4.4-19c0.2-0.9-2.5-8.2-1.7-8.7
								c6.1-4,7.7,0.4,10.1-1.3c1.3-0.9,3,0.8,3.4-0.8c1.6-5.5-2.2-15-6.3-19.2c-1.4-1.4-3.5-2.2-5.8-2.7c-0.9-1.2-2.4-2.4-4.4-3.5
								c-2.3-1.2-7.3-2.8-9.9-3.3c-1.8-0.3-2.2,0.2-3,0.3c0.7,0.1,4.1,1.7,4.8,1.8c-0.7,0.4-2.6,0-3.9,0.5c-0.6,0.3-1.1,1.4-1.1,1.9
								c3.6-0.4,9.1,0,12.4,1.4c-2.6,0.3-6.6,0.6-8.3,1.5c-5,2.6-7.1,8.7-5.8,16c1.3,7.3,7,33.9,8.9,42.8c1.8,8.9-3.9,14.6-7.6,16.2
								l3.9,0.3l-1.3,2.9c4.7,0.5,9.9-1,9.9-1c-1,2.9-8.1,3.9-8.1,3.9s3.4,1,8.9-1c5.5-2.1,8.9-3.4,8.9-3.4l2.6,6.8l5-5l2.1,5.2
								C137.6,162.4,141.5,161.1,140.2,155.1z"/>
							<path fill="#FFFFFF" d="M141.7,153.9c-1.3-6-8.9-19.6-11.7-25.3c-2.9-5.7-5.7-13.8-4.4-19c0.2-0.9,0.2-4.8,1-5.3
								c6.1-4,5.7-0.1,8.1-1.9c1.3-0.9,2.3-2,2.7-3.6c1.6-5.5-2.2-15-6.3-19.2c-1.4-1.4-3.4-2.2-5.8-2.7c-0.9-1.2-2.4-2.4-4.4-3.5
								c-3.9-2.1-8.7-2.9-13.2-2.1c0.7,0.1,2.4,1.5,3,1.6c-1,0.7-3.7,0.6-3.6,2.1c3.6-0.4,7.5,0.2,10.7,1.7c-2.6,0.3-5,0.9-6.7,1.8
								c-5,2.6-6.3,7.8-5,15.1c1.3,7.3,7,33.9,8.9,42.8c1.8,8.9-3.9,14.6-7.6,16.2l3.9,0.3l-1.3,2.9c4.7,0.5,9.9-1,9.9-1
								c-1,2.9-8.1,3.9-8.1,3.9s3.4,1,8.9-1c5.5-2.1,8.9-3.4,8.9-3.4l2.6,6.8l5-5l2.1,5.2C139.1,161.2,143.1,159.9,141.7,153.9z"/>
							<path fill="#2D4F8E" d="M111.8,94c0-1.5,1.2-2.7,2.7-2.7c1.5,0,2.7,1.2,2.7,2.7c0,1.5-1.2,2.7-2.7,2.7
								C113,96.8,111.8,95.5,111.8,94z"/>
							<path fill="#FFFFFF" d="M115,93.1c0-0.4,0.3-0.7,0.7-0.7c0.4,0,0.7,0.3,0.7,0.7c0,0.4-0.3,0.7-0.7,0.7
								C115.3,93.8,115,93.5,115,93.1z"/>
							<path fill="#2D4F8E" d="M130.5,92.4c0-1.3,1.1-2.4,2.4-2.4c1.3,0,2.4,1.1,2.4,2.4c0,1.3-1.1,2.4-2.4,2.4
								C131.5,94.7,130.5,93.7,130.5,92.4z"/>
							<path fill="#FFFFFF" d="M133.2,91.6c0-0.3,0.3-0.6,0.6-0.6c0.3,0,0.6,0.3,0.6,0.6c0,0.3-0.3,0.6-0.6,0.6
								C133.5,92.2,133.2,91.9,133.2,91.6z"/>
							
								<linearGradient id="SVGID_3_" gradientUnits="userSpaceOnUse" x1="209.0754" y1="677.9876" x2="215.2751" y2="677.9876" gradientTransform="matrix(1 0 0 1 -100 -591)">
								<stop  offset="5.600000e-03" style="stop-color:#6176B9"/>
								<stop  offset="0.691" style="stop-color:#394A9F"/>
							</linearGradient>
							<path fill="url(#SVGID_3_)" d="M115.3,86.1c0,0-2.1-0.9-4.1,0.3c-2,1.3-1.9,2.5-1.9,2.5s-1.1-2.4,1.8-3.5
								C113.9,84.2,115.3,86.1,115.3,86.1z"/>
							
								<linearGradient id="SVGID_4_" gradientUnits="userSpaceOnUse" x1="228.5782" y1="676.0997" x2="234.2253" y2="676.0997" gradientTransform="matrix(1 0 0 1 -100 -591)">
								<stop  offset="5.600000e-03" style="stop-color:#6176B9"/>
								<stop  offset="0.691" style="stop-color:#394A9F"/>
							</linearGradient>
							<path fill="url(#SVGID_4_)" d="M134.2,85.9c0,0-1.5-0.8-2.6-0.8c-2.4,0-3,1.1-3,1.1s0.4-2.5,3.4-2
								C133.6,84.4,134.2,85.9,134.2,85.9z"/>
						</g>
					</g>
				</g>
			</g>
			<path fill="#FDD20A" d="M122.9,104.6c0.3-1.7,4.6-4.8,7.6-5c3-0.2,4-0.1,6.5-0.8c2.5-0.6,9.1-2.2,10.9-3.1
				c1.8-0.8,9.5,0.4,4.1,3.4c-2.3,1.3-8.6,3.7-13.1,5.1c-4.5,1.3-7.2-1.3-8.7,0.9c-1.2,1.8-0.2,4.2,5.1,4.7c7.3,0.7,14.2-3.3,15-1.2
				c0.8,2.1-6.2,4.7-10.5,4.8c-4.3,0.1-12.9-2.8-14.1-3.7C124.2,108.9,122.5,106.8,122.9,104.6z"/>
		</g>
	</g>
	<g>
		<path fill="#65BC46" d="M126.3,124.8c0,0-10.2-5.4-10.4-3.2c-0.2,2.2,0,11.2,1.2,11.9c1.2,0.7,9.7-4.4,9.7-4.4L126.3,124.8z"/>
		<path fill="#65BC46" d="M130.2,124.5c0,0,7-5.3,8.5-4.9c1.5,0.3,1.9,11.2,0.5,11.7c-1.4,0.5-9.3-2.8-9.3-2.8L130.2,124.5z"/>
		<path fill="#43A244" d="M123.9,125.1c0,3.9-0.5,5.6,1,6c1.5,0.4,4.4,0,5.4-0.7c1-0.8,0.2-5.8-0.2-6.8
			C129.8,122.7,123.9,123.4,123.9,125.1z"/>
		<path fill="#65BC46" d="M125.1,124.4c0,3.6-0.5,5.1,1,5.4c1.5,0.3,4.4,0,5.4-0.7c1-0.7,0.2-5.3-0.2-6.1
			C131,122.2,125.1,122.9,125.1,124.4z"/>
	</g>
</g>
</svg>
